<svg xmlns="http://www.w3.org/2000/svg" viewBox="0 0 60 60">
  <defs/>
  <g fill="#000" fill-rule="nonzero">
    <path d="M30 0C13.4314575 0 0 13.4314575 0 30s13.4314575 30 30 30 30-13.4314575 30-30C59.981263 13.4392249 46.5607751.01873704 30 0zm20.206 10.646a48.81599927 48.81599927 0 01-5.5 2.1c-1.4395977-3.66071385-3.7155653-6.93391548-6.646-9.558 4.6236091 1.39800833 8.8075179 3.96705094 12.146 7.458zM30 46c-8.836556 0-16-7.163444-16-16s7.163444-16 16-16 16 7.163444 16 16c-.0104696 8.8322157-7.1677843 15.9895304-16 16zm11.019-30.2c.8533333-.188 1.701-.3976667 2.543-.629a39.26801833 39.26801833 0 011.37 4.792c-1.075716-1.5860728-2.3964999-2.991241-3.913-4.163zm-2.356-1.567c-2.35757-1.2947649-4.9770051-2.0406356-7.663-2.182V2.06c4.837.525 9.1 4.823 11.832 11.234-1.374.372-2.7636667.6843333-4.169.937zM29 2.06v9.991c-2.6858374.1407482-5.3052633.8859327-7.663 2.18-1.404-.2506667-2.7936667-.563-4.169-.937C19.9 6.883 24.163 2.585 29 2.06zM18.981 15.8c-1.5165001 1.171759-2.837284 2.5769272-3.913 4.163a39.26801833 39.26801833 0 011.37-4.792c.8413333.2306667 1.689.4403333 2.543.629zM12.015 29h-9.99c.21201709-6.1502268 2.45356498-12.0573648 6.375-16.8a50.85300457 50.85300457 0 006.156 2.41c-1.6180005 4.628113-2.4761003 9.487639-2.541 14.39zm0 2c.0649013 4.9012975.9226585 9.7597831 2.54 14.387A50.85298779 50.85298779 0 008.4 47.8C4.47856498 43.0573648 2.23701709 37.1502268 2.025 31zm3.053 9.039c1.075883 1.5853613 2.3966584 2.9898455 3.913 4.161-.8533333.188-1.701.3976667-2.543.629a39.26801235 39.26801235 0 01-1.37-4.79zm6.269 5.73c2.3577367 1.2940673 4.9771626 2.0392518 7.663 2.18v9.991c-4.837-.525-9.1-4.823-11.832-11.234 1.374-.372 2.7636667-.6843333 4.169-.937zM31 57.94v-9.991c2.6858374-.1407482 5.3052633-.8859327 7.663-2.18 1.404.2513333 2.7936667.5636667 4.169.937C40.1 53.117 35.837 57.415 31 57.94zM41.019 44.2c1.5165001-1.171759 2.837284-2.5769272 3.913-4.163a39.26801833 39.26801833 0 01-1.37 4.792c-.8413333-.2306667-1.689-.4403333-2.543-.629zM47.985 31h9.99c-.2120171 6.1502268-2.453565 12.0573648-6.375 16.8a50.85300457 50.85300457 0 00-6.156-2.41c1.6180005-4.628113 2.4761003-9.487639 2.541-14.39zm0-2c-.0649013-4.9012975-.9226585-9.7597831-2.54-14.387A50.85298779 50.85298779 0 0051.6 12.2c3.921435 4.7426352 6.1629829 10.6497732 6.375 16.8zM21.94 3.188c-2.9322512 2.62354185-5.2099616 5.89678744-6.651 9.558a48.8159979 48.8159979 0 01-5.495-2.1c3.3384821-3.49094906 7.5223909-6.05999167 12.146-7.458zM9.794 49.354a48.8159979 48.8159979 0 015.495-2.1c1.4410384 3.6612126 3.7187488 6.9344582 6.651 9.558-4.6236091-1.3980083-8.8075179-3.9670509-12.146-7.458zm28.266 7.458c2.9322512-2.6235418 5.2099616-5.8967874 6.651-9.558a48.81599927 48.81599927 0 015.5 2.1c-3.3398805 3.4916778-7.5255953 6.0607718-12.151 7.458z"/>
    <path d="M24.708 29.981c.3377683-.00063.6712817-.075389.977-.219.705107-.3263786 1.1935926-.9915344 1.294-1.762H34c1.6568542 0 3-1.3431458 3-3v-2c0-1.6568542-1.3431458-3-3-3h-7.021c-.1116729-.8241394-.6621219-1.5226089-1.4373251-1.8238343-.7752031-.3012253-1.6528404-.1576759-2.2916749.3748343l-4.438 3.7c-.5149146.4381828-.8109458 1.0807335-.8094048 1.7568539.001541.6761205.3004981 1.317315.8174048 1.7531461l4.43 3.69c.409023.3418079.9249596.5293569 1.458.53zM20 24c-.0005807-.0850305.0359327-.1660902.1-.222l4.429-3.689c.0493527-.044026.1128737-.0688666.179-.07.0440218.0005602.0873808.0108024.127.03.10368.0439645.1693651.1474684.165.26V21c0 .5522847.4477153 1 1 1h8c.5522847 0 1 .4477153 1 1v2c0 .5522847-.4477153 1-1 1h-8c-.5522847 0-1 .4477153-1 1v.691c.0002893.1115584-.0640938.2131767-.1650876.2605645-.1009938.0473877-.2202975.0319579-.3059124-.0395645l-4.421-3.683c-.0680258-.0566586-.1075527-.1404704-.108-.229zM41.18 34.242l-4.43-3.691c-.6388345-.5325102-1.5164718-.6760596-2.2916749-.3748343C33.6831219 30.4773911 33.1326729 31.1758606 33.021 32H26c-1.6568542 0-3 1.3431458-3 3v2c0 1.6568542 1.3431458 3 3 3h7.021c.1004074.7704656.588893 1.4356214 1.294 1.762.3057183.143611.6392317.21837.977.219.5332896-.0012041 1.0492542-.189471 1.458-.532l4.438-3.7c.5145611-.438181.8103556-1.080503.8088147-1.7563531-.0015408-.6758501-.300261-1.3168167-.8168147-1.7526469zm-1.28 1.98l-4.429 3.689c-.0854761.0714059-.2045468.0869108-.3054589.0397757C35.064629 39.9036405 35.0000996 39.8023776 35 39.691V39c0-.5522847-.4477153-1-1-1h-8c-.5522847 0-1-.4477153-1-1v-2c0-.5522847.4477153-1 1-1h8c.5522847 0 1-.4477153 1-1v-.691c-.0002893-.1115584.0640938-.2131767.1650876-.2605645.1009938-.0473877.2202975-.0319579.3059124.0395645l4.421 3.684c.0677596.0564335.1072589.1398208.108.228.0005807.0850305-.0359327.1660902-.1.222z"/>
  </g>
</svg>